<svg width="308" height="203" viewBox="0 0 308 203" fill="none" xmlns="http://www.w3.org/2000/svg">
<path d="M154.14 134.145C183.157 134.114 211.855 140.195 238.364 151.993C264.873 163.791 288.598 181.04 307.993 202.617V0.0615845H0V202.938C19.3969 181.265 43.155 163.933 69.7182 152.078C96.2814 140.223 125.05 134.112 154.14 134.145Z" fill="#F29C50"/>
<path d="M248.797 0.0615845L264.025 34.1846L285.243 0.0615845H275.147L265.394 19.5624L257.694 0.0615845H248.797Z" fill="#F2F2F2"/>
<path d="M308 92.7759L292.087 110.737L308 124.422V134.343L285.927 110.224L308 85.5914V92.7759Z" fill="#F2F2F2"/>
<path d="M53.6524 65.7485C52.1393 65.7435 50.6576 66.1799 49.389 67.0044C48.1204 67.8288 47.1199 69.0054 46.5103 70.3898C45.9007 71.7743 45.7084 73.3065 45.9571 74.7987C46.2057 76.2908 46.8844 77.678 47.91 78.7901L38.1022 95.3966L0 98.0172V103.149L40.9494 99.8441L51.9003 81.1097C52.9682 81.3555 54.076 81.3731 55.1511 81.1613C56.2263 80.9495 57.2446 80.5131 58.1394 79.8806C59.0342 79.2481 59.7852 78.4338 60.3434 77.491C60.9016 76.5482 61.2543 75.4982 61.3785 74.4097C61.5026 73.3212 61.3954 72.2188 61.0639 71.1746C60.7323 70.1304 60.1839 69.168 59.4546 68.3503C58.7252 67.5327 57.8313 66.8782 56.8315 66.4299C55.8316 65.9815 54.7483 65.7493 53.6524 65.7485ZM53.6524 76.8537C52.9942 76.8551 52.3504 76.6612 51.8025 76.2966C51.2546 75.932 50.8272 75.4132 50.5744 74.8056C50.3216 74.1981 50.2547 73.5293 50.3823 72.8838C50.5099 72.2383 50.8261 71.6451 51.2911 71.1793C51.756 70.7136 52.3487 70.3962 52.9941 70.2673C53.6395 70.1385 54.3087 70.2039 54.9169 70.4554C55.5251 70.7069 56.045 71.1331 56.4108 71.6801C56.7766 72.2271 56.9719 72.8703 56.9719 73.5283C56.9701 74.4085 56.62 75.2523 55.9981 75.8753C55.3761 76.4984 54.5329 76.8501 53.6524 76.8537Z" fill="#F2F2F2"/>
<path d="M137.824 64.6879C137.709 63.6545 137.388 62.6546 136.881 61.747C136.373 60.8394 135.689 60.0426 134.869 59.4037C134.048 58.7647 133.108 58.2964 132.104 58.0265C131.1 57.7567 130.051 57.6906 129.021 57.8323C127.991 57.9739 126.999 58.3204 126.105 58.8514C125.211 59.3823 124.432 60.0869 123.815 60.9236C123.197 61.7603 122.754 62.7121 122.51 63.7229C122.266 64.7338 122.228 65.7831 122.397 66.8091C122.438 67.1066 122.497 67.4014 122.574 67.6917L97.3669 81.6571L109.947 138.9L115.231 137.819L103.698 83.395L124.156 70.7503C125.238 72.0517 126.716 72.9646 128.364 73.3504C130.013 73.7363 131.742 73.5742 133.291 72.8886C134.839 72.203 136.121 71.0314 136.942 69.5514C137.764 68.0715 138.081 66.364 137.844 64.6879H137.824ZM130.562 69.0397C129.91 69.1298 129.246 69.0245 128.654 68.7372C128.062 68.4498 127.568 67.9934 127.236 67.4255C126.903 66.8576 126.747 66.2039 126.786 65.5471C126.825 64.8903 127.058 64.2599 127.456 63.7357C127.854 63.2115 128.399 62.8171 129.021 62.6023C129.643 62.3876 130.315 62.3622 130.951 62.5293C131.588 62.6965 132.16 63.0486 132.597 63.5413C133.033 64.034 133.313 64.6449 133.402 65.2969C133.521 66.1696 133.289 67.0539 132.756 67.7556C132.224 68.4573 131.434 68.9191 130.562 69.0397Z" fill="#F2F2F2"/>
<path d="M156.57 70.3671L145.961 53.3091C147.415 52.131 148.396 50.4692 148.724 48.6275C149.053 46.7859 148.707 44.8876 147.751 43.2798C146.794 41.672 145.29 40.4622 143.515 39.8718C141.739 39.2813 139.81 39.3496 138.081 40.0642C136.352 40.7788 134.938 42.0919 134.097 43.7633C133.257 45.4347 133.046 47.3527 133.505 49.1665C133.963 50.9803 135.059 52.5686 136.592 53.6408C138.125 54.7131 139.993 55.1977 141.855 55.006L150.376 72.5909L152.484 134.172L164.455 134.412L156.57 70.3671ZM137.769 47.7257C137.679 47.0739 137.784 46.41 138.071 45.8181C138.359 45.2261 138.815 44.7327 139.383 44.4004C139.951 44.068 140.605 43.9115 141.262 43.9508C141.919 43.9901 142.55 44.2233 143.074 44.621C143.599 45.0187 143.993 45.563 144.208 46.185C144.423 46.8069 144.448 47.4786 144.281 48.115C144.114 48.7514 143.761 49.3239 143.269 49.7601C142.776 50.1963 142.165 50.4765 141.513 50.5653C141.08 50.625 140.64 50.599 140.218 50.4885C139.796 50.3781 139.399 50.1855 139.051 49.9218C138.704 49.658 138.411 49.3283 138.191 48.9514C137.971 48.5746 137.828 48.1581 137.769 47.7257Z" fill="#F2F2F2"/>
<path d="M193.009 27.7869C192.793 26.199 192.059 24.7268 190.919 23.5996C189.78 22.4723 188.3 21.7532 186.709 21.5542C185.119 21.3551 183.507 21.6873 182.125 22.499C180.743 23.3106 179.668 24.5563 179.067 26.0421L157.316 25.3579L167.466 0.0410461H162.449L150.355 30.8318L178.978 31.2629C179.603 32.9347 180.822 34.3183 182.401 35.1505C183.98 35.9827 185.81 36.2054 187.543 35.7761C189.276 35.3468 190.791 34.2956 191.798 32.8224C192.806 31.3493 193.237 29.5571 193.009 27.7869ZM186.226 31.8513C185.618 31.931 184.999 31.8285 184.448 31.5569C183.898 31.2852 183.44 30.8566 183.133 30.3251C182.826 29.7936 182.683 29.1831 182.722 28.5705C182.762 27.958 182.982 27.3709 183.355 26.8834C183.729 26.3959 184.238 26.0299 184.819 25.8314C185.4 25.633 186.027 25.6112 186.62 25.7686C187.214 25.926 187.747 26.2557 188.153 26.716C188.56 27.1763 188.82 27.7466 188.903 28.3549C188.957 28.7607 188.931 29.1735 188.826 29.5692C188.721 29.965 188.538 30.3361 188.289 30.661C188.039 30.986 187.728 31.2584 187.373 31.4627C187.018 31.667 186.626 31.7991 186.22 31.8513H186.226Z" fill="#F2F2F2"/>
<path d="M236.073 39.6106C235.812 37.6912 234.975 35.896 233.673 34.4618C232.37 33.0277 230.663 32.0221 228.777 31.5776V0.0615845H224.328V31.5708C222.527 32.0053 220.891 32.9526 219.617 34.2979C218.343 35.6433 217.487 37.3289 217.152 39.1508C216.817 40.9726 217.018 42.8525 217.729 44.5628C218.441 46.273 219.634 47.7403 221.163 48.7868C222.691 49.8334 224.491 50.4144 226.343 50.4594C228.196 50.5044 230.021 50.0115 231.599 49.0405C233.177 48.0694 234.44 46.6618 235.234 44.9882C236.028 43.3145 236.319 41.4466 236.073 39.6106ZM227.107 44.9819C226.302 45.0857 225.485 44.9488 224.758 44.5884C224.03 44.228 223.427 43.6603 223.022 42.957C222.617 42.2536 222.43 41.4462 222.484 40.6367C222.538 39.8272 222.831 39.0518 223.326 38.4085C223.82 37.7652 224.494 37.2828 225.263 37.0222C226.032 36.7617 226.86 36.7346 227.644 36.9445C228.428 37.1544 229.132 37.5918 229.668 38.2015C230.203 38.8112 230.546 39.5658 230.653 40.3701C230.724 40.9058 230.688 41.4502 230.549 41.9722C230.409 42.4942 230.167 42.9835 229.838 43.4119C229.508 43.8404 229.098 44.1996 228.629 44.469C228.161 44.7384 227.643 44.9127 227.107 44.9819Z" fill="#F2F2F2"/>
<path d="M283.874 27.6706C282.809 26.1196 281.216 25.0093 279.392 24.5473C277.568 24.0853 275.639 24.3032 273.964 25.1604C272.289 26.0175 270.984 27.4552 270.292 29.2045C269.6 30.9539 269.57 32.8952 270.206 34.6655C270.842 36.4357 272.101 37.9137 273.749 38.8232C275.396 39.7326 277.318 40.0112 279.155 39.6068C280.993 39.2024 282.62 38.1428 283.733 36.626C284.846 35.1093 285.368 33.2392 285.202 31.3655H285.243L307.993 25.0363V18.0229L283.874 27.6706ZM277.954 35.3204C277.307 35.4089 276.65 35.3039 276.063 35.0187C275.477 34.7336 274.988 34.281 274.659 33.7183C274.329 33.1556 274.174 32.5079 274.213 31.857C274.252 31.2062 274.482 30.5815 274.876 30.0617C275.27 29.542 275.809 29.1506 276.425 28.9369C277.041 28.7233 277.707 28.697 278.338 28.8614C278.969 29.0259 279.537 29.3736 279.971 29.8607C280.404 30.3478 280.683 30.9524 280.773 31.5982C280.89 32.4651 280.66 33.3432 280.131 34.0406C279.603 34.7381 278.82 35.1981 277.954 35.3204Z" fill="#F2F2F2"/>
<path d="M246.059 52.919V72.762L208.224 65.1943C208.247 64.7374 208.229 64.2794 208.169 63.8258C207.95 62.2355 207.215 60.7609 206.077 59.6279C204.94 58.4949 203.462 57.7658 201.87 57.5525C200.279 57.3391 198.661 57.6531 197.265 58.4465C195.869 59.2399 194.771 60.4688 194.141 61.9451C193.51 63.4215 193.38 65.0638 193.772 66.6207C194.164 68.1775 195.055 69.5631 196.31 70.5652C197.565 71.5673 199.113 72.1306 200.719 72.169C202.324 72.2074 203.898 71.7187 205.199 70.7777L251.021 80.617L253.93 59.4056L308 49.6552V44.1813L246.059 52.919ZM201.318 67.9723C200.704 68.0572 200.078 67.9581 199.52 67.6875C198.962 67.4168 198.497 66.9869 198.184 66.452C197.87 65.917 197.723 65.3012 197.759 64.6824C197.796 64.0635 198.016 63.4695 198.39 62.9754C198.765 62.4813 199.277 62.1093 199.863 61.9065C200.449 61.7038 201.082 61.6794 201.682 61.8363C202.282 61.9933 202.822 62.3246 203.234 62.7883C203.645 63.2521 203.91 63.8274 203.994 64.4416C204.097 65.2599 203.875 66.086 203.374 66.7415C202.873 67.397 202.135 67.8292 201.318 67.9449V67.9723Z" fill="#F2F2F2"/>
<path d="M199.005 43.8529L206.698 0.0615845H201.564L195.233 40.6027L169.225 48.1294L172.825 66.6038C171.542 67.7011 170.677 69.2068 170.374 70.8674C170.072 72.528 170.351 74.2421 171.165 75.7211C171.978 77.2 173.277 78.3535 174.842 78.9873C176.407 79.6211 178.142 79.6965 179.756 79.2008C181.37 78.7051 182.764 77.6685 183.703 76.2657C184.642 74.8629 185.069 73.1795 184.911 71.499C184.754 69.8184 184.023 68.2433 182.84 67.0389C181.657 65.8344 180.095 65.0743 178.417 64.8864L176.24 49.491L199.005 43.8529ZM180.689 71.763C180.773 72.3767 180.672 73.0014 180.401 73.5581C180.129 74.1148 179.699 74.5786 179.164 74.8909C178.629 75.2032 178.013 75.35 177.395 75.3128C176.776 75.2756 176.183 75.056 175.689 74.6818C175.196 74.3076 174.824 73.7955 174.621 73.2103C174.418 72.625 174.394 71.9929 174.55 71.3936C174.706 70.7943 175.037 70.2547 175.5 69.8431C175.963 69.4315 176.537 69.1662 177.151 69.0808C177.559 69.0239 177.975 69.0482 178.374 69.1523C178.774 69.2564 179.148 69.4383 179.477 69.6875C179.806 69.9367 180.082 70.2483 180.29 70.6044C180.498 70.9606 180.634 71.3543 180.689 71.763Z" fill="#F2F2F2"/>
<path d="M228.12 103.443C227.953 102.219 227.479 101.057 226.743 100.064C226.008 99.0717 225.034 98.2804 223.911 97.7638C222.788 97.2472 221.554 97.0219 220.321 97.1087C219.088 97.1955 217.897 97.5917 216.858 98.2605C215.819 98.9293 214.965 99.8493 214.376 100.935C213.787 102.021 213.481 103.238 213.487 104.474C213.492 105.709 213.81 106.923 214.409 108.004C215.009 109.084 215.871 109.996 216.916 110.655L209.333 141.576L217.354 143.971L221.461 111.757C221.577 111.757 221.7 111.757 221.817 111.723C222.775 111.595 223.699 111.279 224.535 110.793C225.371 110.307 226.103 109.661 226.689 108.892C227.274 108.123 227.702 107.245 227.948 106.31C228.194 105.375 228.252 104.401 228.12 103.443ZM221.276 107.549C220.662 107.634 220.037 107.537 219.479 107.267C218.921 106.998 218.455 106.569 218.141 106.035C217.826 105.501 217.677 104.886 217.712 104.268C217.747 103.649 217.965 103.055 218.337 102.56C218.71 102.065 219.221 101.692 219.806 101.487C220.391 101.283 221.024 101.256 221.624 101.41C222.224 101.565 222.765 101.894 223.178 102.355C223.591 102.817 223.858 103.391 223.945 104.004C224.003 104.413 223.98 104.829 223.877 105.228C223.773 105.628 223.592 106.003 223.343 106.332C223.095 106.661 222.784 106.938 222.428 107.147C222.072 107.356 221.678 107.492 221.269 107.549H221.276Z" fill="#F2F2F2"/>
<path d="M307.993 70.3671L258.119 85.9746C257.002 84.6537 255.455 83.7685 253.75 83.4745C252.045 83.1806 250.291 83.4967 248.796 84.3673C247.301 85.2379 246.161 86.6073 245.576 88.235C244.991 89.8627 244.998 91.6445 245.596 93.2673C246.195 94.8902 247.346 96.2503 248.848 97.1088C250.35 97.9672 252.107 98.269 253.809 97.9612C255.512 97.6534 257.051 96.7557 258.157 95.4257C259.263 94.0958 259.865 92.4186 259.857 90.689L307.993 77.3806V70.3671ZM252.945 93.8297C252.329 93.9126 251.704 93.811 251.146 93.538C250.589 93.265 250.125 92.8328 249.814 92.2961C249.503 91.7594 249.358 91.1424 249.398 90.5232C249.437 89.9041 249.66 89.3107 250.037 88.8182C250.415 88.3256 250.93 87.9562 251.518 87.7567C252.105 87.5571 252.739 87.5364 253.338 87.6972C253.938 87.858 254.476 88.193 254.885 88.6599C255.293 89.1267 255.554 89.7043 255.634 90.3195C255.741 91.1402 255.519 91.97 255.017 92.6276C254.514 93.2852 253.772 93.7174 252.951 93.8297H252.945Z" fill="#F2F2F2"/>
<path d="M281.656 105.708C281.367 103.543 280.285 101.562 278.62 100.148C276.954 98.7336 274.824 97.9862 272.64 98.05C270.456 98.1138 268.374 98.9843 266.794 100.493C265.214 102.002 264.25 104.043 264.087 106.221L237.675 105.434L231.091 148.911L238.428 152.017L241.953 113.645L265.312 111.442C266.356 113.194 267.973 114.531 269.89 115.226C271.807 115.922 273.906 115.933 275.83 115.258C277.754 114.583 279.386 113.263 280.448 111.522C281.51 109.782 281.937 107.728 281.656 105.708ZM273.443 110.648C272.703 110.751 271.949 110.632 271.276 110.306C270.604 109.98 270.043 109.462 269.665 108.817C269.287 108.173 269.109 107.431 269.153 106.685C269.197 105.939 269.461 105.223 269.912 104.627C270.363 104.031 270.981 103.583 271.687 103.338C272.394 103.094 273.156 103.064 273.88 103.253C274.603 103.442 275.253 103.841 275.75 104.4C276.246 104.959 276.565 105.652 276.667 106.392C276.733 106.885 276.702 107.386 276.574 107.867C276.447 108.348 276.226 108.799 275.924 109.194C275.622 109.589 275.245 109.921 274.815 110.171C274.384 110.42 273.909 110.583 273.416 110.648H273.443Z" fill="#F2F2F2"/>
<path d="M290.499 133.139C290.234 131.187 289.323 129.379 287.911 128.004C286.5 126.629 284.669 125.765 282.71 125.549C280.751 125.334 278.776 125.779 277.1 126.815C275.423 127.85 274.141 129.417 273.457 131.264H258.55L251.61 158.47L256.401 161.118L262.992 135.883L273.258 137.423L273.402 137.299C274.119 139.382 275.588 141.122 277.521 142.179C279.454 143.236 281.712 143.533 283.853 143.013C285.994 142.492 287.864 141.192 289.096 139.365C290.327 137.539 290.833 135.319 290.513 133.139H290.499ZM282.286 138.079C281.547 138.181 280.795 138.061 280.124 137.735C279.453 137.408 278.895 136.891 278.518 136.247C278.142 135.604 277.965 134.863 278.009 134.119C278.054 133.374 278.318 132.66 278.769 132.066C279.22 131.472 279.836 131.025 280.541 130.781C281.246 130.537 282.007 130.508 282.729 130.697C283.45 130.886 284.1 131.284 284.595 131.842C285.09 132.4 285.408 133.092 285.51 133.83C285.576 134.323 285.545 134.824 285.417 135.304C285.289 135.784 285.068 136.235 284.766 136.629C284.464 137.024 284.087 137.355 283.657 137.604C283.227 137.853 282.751 138.015 282.259 138.079H282.286Z" fill="#F2F2F2"/>
<path d="M288.952 158.976L279.74 153.543C280.479 152.631 280.877 151.49 280.865 150.316C280.852 149.142 280.431 148.009 279.672 147.112C278.914 146.216 277.866 145.612 276.711 145.405C275.555 145.198 274.363 145.4 273.34 145.978C272.318 146.555 271.529 147.471 271.109 148.567C270.69 149.664 270.666 150.873 271.042 151.985C271.419 153.097 272.171 154.043 273.171 154.66C274.17 155.276 275.353 155.525 276.516 155.363C276.964 155.299 277.402 155.174 277.817 154.994L288.145 164.45L307.993 162.055V155.384L288.952 158.976ZM276.126 152.489C275.704 152.548 275.273 152.479 274.89 152.293C274.506 152.107 274.186 151.811 273.971 151.443C273.755 151.076 273.654 150.652 273.679 150.227C273.705 149.801 273.856 149.392 274.113 149.053C274.371 148.713 274.723 148.457 275.126 148.318C275.529 148.178 275.964 148.161 276.377 148.269C276.79 148.377 277.161 148.605 277.444 148.924C277.727 149.242 277.909 149.638 277.967 150.06C278.007 150.341 277.99 150.626 277.919 150.901C277.848 151.175 277.723 151.432 277.552 151.658C277.381 151.884 277.167 152.073 276.922 152.216C276.677 152.359 276.407 152.452 276.126 152.489Z" fill="#F2F2F2"/>
<path d="M216.026 85.8857C215.895 84.93 215.577 84.0096 215.09 83.177C214.603 82.3443 213.957 81.6157 213.188 81.0327C212.419 80.4498 211.543 80.0239 210.61 79.7794C209.677 79.5349 208.704 79.4766 207.748 79.6078C206.792 79.739 205.872 80.0571 205.039 80.544C204.206 81.0309 203.477 81.677 202.894 82.4455C202.311 83.214 201.885 84.0898 201.64 85.0229C201.396 85.9559 201.337 86.928 201.469 87.8836C201.567 88.6161 201.777 89.3292 202.091 89.9979L184.296 97.5656L170.799 90.6685C170.889 89.9902 170.82 89.3005 170.598 88.6533C170.376 88.0062 170.007 87.4191 169.521 86.938C169.034 86.4569 168.443 86.0949 167.793 85.8803C167.144 85.6657 166.453 85.6043 165.776 85.7009C164.605 85.8624 163.546 86.4823 162.832 87.4242C162.119 88.366 161.809 89.5527 161.97 90.7232C162.132 91.8937 162.752 92.9521 163.694 93.6656C164.636 94.379 165.823 94.6891 166.994 94.5276C167.316 94.4801 167.633 94.3998 167.938 94.2881L177.452 99.9605L174.358 135.117L183.256 136.17L186.165 102.184L204.152 92.6049C205.298 93.5231 206.693 94.0766 208.158 94.1938C209.622 94.311 211.088 93.9865 212.365 93.2623C213.643 92.5381 214.674 91.4474 215.326 90.1312C215.977 88.815 216.219 87.3337 216.02 85.8788L216.026 85.8857ZM164.496 90.3743C164.444 90.0014 164.503 89.6216 164.667 89.2827C164.831 88.9438 165.092 88.6613 165.417 88.4707C165.742 88.2802 166.116 88.1903 166.492 88.2124C166.868 88.2344 167.229 88.3675 167.529 88.5948C167.829 88.822 168.055 89.1332 168.178 89.4889C168.301 89.8446 168.316 90.2289 168.221 90.5931C168.125 90.9573 167.924 91.2849 167.642 91.5347C167.361 91.7844 167.011 91.9449 166.638 91.9959C166.391 92.0306 166.139 92.0162 165.897 91.9534C165.656 91.8906 165.429 91.7807 165.23 91.63C165.031 91.4794 164.863 91.2909 164.738 91.0754C164.612 90.8599 164.529 90.6216 164.496 90.3743ZM209.175 89.9911C208.561 90.0744 207.937 89.974 207.38 89.7026C206.823 89.4312 206.359 89.0008 206.047 88.466C205.734 87.9311 205.587 87.3157 205.625 86.6975C205.662 86.0793 205.881 85.4859 206.256 84.9924C206.63 84.4988 207.142 84.1273 207.728 83.9246C208.313 83.7219 208.945 83.6971 209.545 83.8535C210.144 84.0098 210.684 84.3402 211.096 84.803C211.507 85.2658 211.773 85.8401 211.858 86.4536C211.915 86.8621 211.891 87.2778 211.787 87.6769C211.683 88.0759 211.501 88.4505 211.251 88.7792C211.002 89.1078 210.69 89.384 210.334 89.592C209.978 89.8 209.584 89.9356 209.175 89.9911Z" fill="#F2F2F2"/>
<path d="M91.1181 95.6019C90.9793 94.5274 90.6175 93.4937 90.056 92.5671C89.4945 91.6405 88.7456 90.8414 87.8572 90.2209C86.9688 89.6004 85.9606 89.1722 84.8972 88.9638C83.8337 88.7554 82.7384 88.7713 81.6815 89.0106C80.6246 89.2499 79.6293 89.7072 78.7594 90.3533C77.8895 90.9994 77.1641 91.82 76.6298 92.7626C76.0955 93.7052 75.764 94.7489 75.6566 95.827C75.5491 96.905 75.6681 97.9936 76.0059 99.0231L54.5901 112.509L58.1423 157.669L68.1692 152.756L61.0922 115.869L77.6622 101.911C78.7817 103.136 80.264 103.972 81.8924 104.296C83.5209 104.619 85.2101 104.413 86.7133 103.709C88.2165 103.004 89.4549 101.837 90.2474 100.378C91.0398 98.9198 91.345 97.2461 91.1181 95.6019ZM83.8631 99.9468C83.2128 100.037 82.5505 99.9317 81.9598 99.6453C81.3692 99.3588 80.8767 98.9037 80.5448 98.3375C80.2128 97.7713 80.0562 97.1194 80.0949 96.4642C80.1335 95.8091 80.3656 95.1801 80.7618 94.6568C81.1579 94.1334 81.7004 93.7393 82.3207 93.5242C82.9409 93.3091 83.611 93.2827 84.2462 93.4483C84.8815 93.6139 85.4533 93.9641 85.8895 94.4546C86.3257 94.9451 86.6066 95.5539 86.6967 96.204C86.7574 96.6359 86.7323 97.0755 86.6226 97.4977C86.513 97.9198 86.321 98.3162 86.0577 98.6639C85.7944 99.0117 85.465 99.304 85.0884 99.5242C84.7118 99.7443 84.2954 99.888 83.8631 99.9468Z" fill="#F2F2F2"/>
<path d="M137.899 134.795L128.905 101.787C130.484 100.876 131.694 99.4407 132.323 97.7304C132.953 96.0202 132.964 94.1433 132.353 92.4262C131.742 90.7091 130.548 89.2604 128.98 88.3318C127.411 87.4033 125.567 87.0537 123.767 87.3438C121.967 87.6339 120.326 88.5454 119.129 89.9198C117.932 91.2942 117.254 93.0446 117.214 94.8667C117.174 96.6887 117.774 98.4672 118.91 99.8928C120.045 101.318 121.645 102.301 123.43 102.67L129.59 135.609L137.899 134.795ZM121.705 95.5129C121.614 94.8611 121.718 94.1967 122.004 93.604C122.291 93.0114 122.747 92.517 123.314 92.1836C123.882 91.8502 124.536 91.6927 125.193 91.7311C125.851 91.7695 126.482 92.002 127.007 92.3992C127.532 92.7965 127.927 93.3405 128.142 93.9625C128.358 94.5845 128.384 95.2565 128.217 95.8932C128.05 96.53 127.698 97.1029 127.205 97.5395C126.713 97.9761 126.101 98.2567 125.449 98.3457C125.016 98.4044 124.575 98.3772 124.152 98.2655C123.73 98.1539 123.333 97.96 122.985 97.695C122.638 97.43 122.346 97.099 122.126 96.7211C121.906 96.3432 121.763 95.9256 121.705 95.4924V95.5129Z" fill="#F2F2F2"/>
<path d="M95.2862 142.63L85.0198 124.614C86.4318 123.441 87.3833 121.806 87.7057 120C88.028 118.193 87.7006 116.331 86.7813 114.742C85.8619 113.154 84.41 111.941 82.6826 111.32C80.9552 110.699 79.0636 110.709 77.3429 111.349C75.6221 111.988 74.1831 113.215 73.2807 114.813C72.3782 116.412 72.0705 118.277 72.412 120.081C72.7535 121.884 73.7222 123.508 75.1465 124.666C76.5709 125.824 78.3591 126.44 80.1945 126.406L88.4077 144.792L95.2862 142.63ZM76.7929 119.058C76.7028 118.406 76.8081 117.742 77.0955 117.15C77.383 116.558 77.8396 116.065 78.4076 115.732C78.9756 115.4 79.6295 115.243 80.2865 115.283C80.9435 115.322 81.5741 115.555 82.0984 115.953C82.6228 116.351 83.0173 116.895 83.2321 117.517C83.4469 118.139 83.4723 118.811 83.3051 119.447C83.1379 120.083 82.7856 120.656 82.2929 121.092C81.8001 121.528 81.1889 121.808 80.5368 121.897C79.6638 122.016 78.7793 121.784 78.0774 121.251C77.3755 120.719 76.9136 119.93 76.7929 119.058Z" fill="#F2F2F2"/>
<path d="M28.2464 112.982C27.9302 110.941 26.8263 109.106 25.1719 107.87C23.5174 106.634 21.4442 106.096 19.3972 106.37C17.3502 106.645 15.4926 107.712 14.2231 109.34C12.9536 110.969 12.3735 113.031 12.6072 115.082L0 118.832V123.108L13.9692 118.592C14.9841 120.044 16.4583 121.111 18.1541 121.622C19.8499 122.134 21.6686 122.06 23.317 121.411C24.9655 120.763 26.3476 119.579 27.2406 118.05C28.1336 116.521 28.4855 114.735 28.2395 112.982H28.2464ZM20.8888 117.395C20.2291 117.486 19.5573 117.38 18.9581 117.089C18.359 116.798 17.8595 116.337 17.5228 115.762C17.1861 115.188 17.0272 114.527 17.0664 113.862C17.1056 113.198 17.3409 112.559 17.7428 112.029C18.1446 111.498 18.6949 111.098 19.324 110.88C19.9531 110.661 20.6328 110.635 21.2772 110.802C21.9216 110.97 22.5018 111.326 22.9443 111.823C23.3868 112.32 23.6718 112.938 23.7634 113.597C23.8843 114.482 23.6497 115.378 23.1109 116.09C22.5721 116.802 21.773 117.271 20.8888 117.395Z" fill="#F2F2F2"/>
<path d="M34.9948 149.848L16.878 148.48C16.5172 146.966 15.6206 145.633 14.3538 144.729C13.0869 143.824 11.5354 143.408 9.98569 143.558C8.43602 143.708 6.99291 144.413 5.92288 145.543C4.85285 146.674 4.22818 148.154 4.16425 149.709C4.10033 151.264 4.60145 152.79 5.57508 154.004C6.54871 155.219 7.92907 156.04 9.46122 156.316C10.9934 156.593 12.5738 156.306 13.9107 155.508C15.2475 154.71 16.2505 153.456 16.7343 151.976L29.0951 153.475L34.9059 171.894L41.8186 167.228L34.9948 149.848ZM10.9987 152.756C10.4628 152.828 9.91755 152.74 9.43183 152.502C8.9461 152.264 8.54165 151.888 8.26948 151.421C7.99731 150.954 7.86961 150.417 7.9025 149.877C7.93539 149.338 8.12738 148.82 8.45427 148.389C8.78116 147.958 9.2283 147.634 9.73929 147.457C10.2503 147.28 10.8022 147.259 11.3255 147.395C11.8488 147.531 12.32 147.82 12.6796 148.223C13.0393 148.627 13.2713 149.128 13.3463 149.664C13.4397 150.381 13.2452 151.106 12.8053 151.681C12.3654 152.255 11.7159 152.632 10.9987 152.729V152.756Z" fill="#F2F2F2"/>
<path d="M18.3153 159.571L0 161.029V165.387L13.5996 164.703L11.1151 171.915C10.6587 171.878 10.1996 171.892 9.74627 171.956C8.28687 172.153 6.93901 172.844 5.92685 173.914C4.9147 174.983 4.29926 176.367 4.18291 177.834C4.06656 179.302 4.45631 180.765 5.28732 181.981C6.11834 183.196 7.34054 184.091 8.75063 184.515C10.1607 184.94 11.6737 184.869 13.038 184.315C14.4023 183.76 15.5356 182.755 16.2494 181.468C16.9632 180.18 17.2145 178.687 16.9616 177.236C16.7086 175.786 15.9666 174.466 14.859 173.496L17.5967 168.898L18.3153 159.571ZM10.9988 181.043C10.4628 181.115 9.91758 181.026 9.43186 180.788C8.94613 180.551 8.54168 180.175 8.26951 179.708C7.99733 179.24 7.86964 178.703 7.90253 178.164C7.93541 177.624 8.12741 177.106 8.4543 176.676C8.78119 176.245 9.22833 175.921 9.73932 175.744C10.2503 175.567 10.8022 175.545 11.3255 175.682C11.8488 175.818 12.32 176.106 12.6796 176.51C13.0393 176.913 13.2713 177.415 13.3464 177.95C13.3965 178.307 13.3754 178.671 13.2844 179.02C13.1934 179.369 13.0342 179.697 12.816 179.985C12.5979 180.272 12.325 180.513 12.0131 180.695C11.7012 180.877 11.3565 180.995 10.9988 181.043Z" fill="#F2F2F2"/>
<path d="M45.4666 131.586C45.1724 129.416 44.0717 127.435 42.3835 126.04C40.6953 124.644 38.5433 123.934 36.3556 124.052C34.168 124.17 32.105 125.108 30.577 126.677C29.0491 128.247 28.1682 130.334 28.1095 132.523L0 136.677V140.556L29.1909 137.005C30.181 138.78 31.7599 140.153 33.6549 140.889C35.5499 141.624 37.6421 141.675 39.5706 141.032C41.4991 140.39 43.1427 139.095 44.2179 137.37C45.2931 135.645 45.7323 133.6 45.4598 131.586H45.4666ZM37.3288 136.458C36.5992 136.558 35.8564 136.439 35.1942 136.117C34.532 135.795 33.9802 135.284 33.6085 134.649C33.2368 134.013 33.062 133.282 33.1061 132.547C33.1502 131.812 33.4113 131.107 33.8563 130.52C34.3014 129.934 34.9104 129.493 35.6063 129.252C36.3023 129.012 37.0539 128.983 37.7663 129.169C38.4786 129.356 39.1196 129.749 39.6082 130.3C40.0968 130.851 40.4111 131.534 40.5114 132.263C40.5779 132.748 40.5484 133.24 40.4245 133.713C40.3006 134.186 40.0847 134.63 39.7891 135.02C39.4936 135.409 39.1242 135.737 38.702 135.983C38.2799 136.23 37.8132 136.391 37.3288 136.458Z" fill="#F2F2F2"/>
<path d="M54.4737 44.4755C53.45 44.4755 52.4364 44.6774 51.4909 45.0697C50.5455 45.4619 49.6867 46.0368 48.9638 46.7614C48.2409 47.486 47.6681 48.3461 47.2782 49.2923C46.8884 50.2386 46.6891 51.2525 46.6918 52.2758C46.6852 53.2568 46.8664 54.2299 47.2256 55.1428L38.7866 59.4193L34.7964 49.2105L0 51.0374V57.9892L32.394 54.568L38.328 64.2637L50.4014 58.8993C51.6214 59.6587 53.0297 60.0617 54.4669 60.0625C55.5087 60.0934 56.5461 59.9149 57.5177 59.5377C58.4892 59.1604 59.3752 58.592 60.123 57.8663C60.8709 57.1405 61.4654 56.272 61.8714 55.3123C62.2774 54.3526 62.4865 53.3212 62.4865 52.2793C62.4865 51.2373 62.2774 50.2059 61.8714 49.2462C61.4654 48.2865 60.8709 47.4181 60.123 46.6923C59.3752 45.9665 58.4892 45.3981 57.5177 45.0209C56.5461 44.6436 55.5087 44.4652 54.4669 44.4961L54.4737 44.4755ZM54.4737 55.5739C53.8175 55.5725 53.1764 55.3767 52.6314 55.0113C52.0864 54.6458 51.662 54.127 51.4118 53.5205C51.1616 52.914 51.0969 52.247 51.2257 51.6037C51.3546 50.9604 51.6712 50.3698 52.1358 49.9063C52.6003 49.4429 53.1918 49.1275 53.8355 49C54.4792 48.8725 55.1463 48.9387 55.7525 49.19C56.3586 49.4414 56.8766 49.8668 57.2411 50.4123C57.6055 50.9579 57.8 51.5993 57.8 52.2553C57.8028 52.6934 57.7187 53.1277 57.5526 53.5332C57.3866 53.9386 57.1419 54.3072 56.8327 54.6176C56.5234 54.928 56.1558 55.1742 55.7509 55.3418C55.346 55.5095 54.9119 55.5953 54.4737 55.5944V55.5739Z" fill="#F2F2F2"/>
<path d="M102.726 15.6828C100.763 15.6843 98.8725 16.4277 97.4343 17.7639C95.9962 19.1001 95.1165 20.9304 94.9714 22.8878L65.4793 30.8523L0 36.4357V41.9096L66.3896 37.9205L74.9792 57.4213C73.8402 58.7779 73.1983 60.4823 73.1596 62.253C73.1208 64.0236 73.6876 65.7545 74.7661 67.1595C75.8447 68.5646 77.3705 69.5596 79.0914 69.9803C80.8123 70.4009 82.6252 70.222 84.2306 69.473C85.8359 68.7241 87.1376 67.4499 87.9205 65.8612C88.7034 64.2724 88.9207 62.4641 88.5363 60.7353C88.1519 59.0064 87.189 57.4603 85.8067 56.3526C84.4243 55.245 82.7053 54.642 80.9338 54.6433C80.79 54.6433 80.6463 54.6433 80.5094 54.6433L72.0909 34.3625L96.1349 27.5817C96.8553 28.7276 97.8623 29.6659 99.0564 30.3037C100.25 30.9416 101.59 31.257 102.944 31.2187C104.297 31.1805 105.617 30.7899 106.773 30.0857C107.929 29.3814 108.882 28.3878 109.536 27.203C110.19 26.0181 110.524 24.6831 110.505 23.3298C110.485 21.9765 110.113 20.6516 109.425 19.4862C108.736 18.3207 107.756 17.355 106.58 16.6844C105.404 16.0137 104.073 15.6614 102.719 15.6622L102.726 15.6828ZM84.2464 62.4231C84.2477 63.0811 84.0538 63.7247 83.6891 64.2725C83.3245 64.8202 82.8054 65.2475 82.1978 65.5003C81.5901 65.753 80.921 65.8198 80.2753 65.6923C79.6296 65.5648 79.0363 65.2486 78.5704 64.7838C78.1046 64.319 77.7871 63.7265 77.6582 63.0812C77.5293 62.436 77.5947 61.767 77.8463 61.159C78.0979 60.5509 78.5242 60.0312 79.0714 59.6655C79.6185 59.2998 80.2619 59.1046 80.9201 59.1046C81.3578 59.1028 81.7916 59.1872 82.1967 59.353C82.6018 59.5188 82.9702 59.7627 83.281 60.0709C83.5918 60.379 83.8388 60.7454 84.008 61.149C84.1771 61.5526 84.2651 61.9855 84.2669 62.4231H84.2464ZM102.726 26.788C102.069 26.7812 101.429 26.5803 100.887 26.2105C100.344 25.8407 99.9231 25.3186 99.6767 24.71C99.4304 24.1014 99.3698 23.4335 99.5026 22.7906C99.6353 22.1476 99.9554 21.5583 100.423 21.0969C100.89 20.6355 101.483 20.3227 102.128 20.198C102.773 20.0732 103.44 20.142 104.046 20.3957C104.651 20.6494 105.168 21.0767 105.532 21.6237C105.895 22.1706 106.088 22.8129 106.087 23.4694C106.087 23.9087 105.999 24.3436 105.83 24.7489C105.661 25.1542 105.412 25.5219 105.1 25.8306C104.787 26.1393 104.416 26.3829 104.009 26.5472C103.601 26.7116 103.165 26.7934 102.726 26.788Z" fill="#F2F2F2"/>
<path d="M74.8629 7.41715C73.4106 7.41866 71.9878 7.82639 70.7553 8.59424C69.5228 9.36208 68.5297 10.4594 67.8886 11.7621L52.7011 11.2352L51.3322 0.0615845H45.6309L48.8272 16.1412L67.6832 18.1939C68.227 19.4941 69.1135 20.6223 70.2483 21.4584C71.383 22.2944 72.7235 22.8069 74.1267 22.9413C75.5299 23.0756 76.9433 22.8267 78.2161 22.2212C79.489 21.6156 80.5736 20.6761 81.3543 19.5027C82.135 18.3294 82.5825 16.9662 82.6492 15.5585C82.7159 14.1509 82.3993 12.7515 81.733 11.5096C81.0667 10.2678 80.0758 9.22993 78.8659 8.5068C77.656 7.78366 76.2725 7.40233 74.8629 7.40347V7.41715ZM74.8629 18.5224C74.205 18.5224 73.5619 18.3273 73.0149 17.9619C72.4679 17.5965 72.0415 17.0772 71.7898 16.4695C71.538 15.8619 71.4721 15.1933 71.6005 14.5482C71.7288 13.9031 72.0456 13.3106 72.5108 12.8455C72.976 12.3805 73.5687 12.0638 74.214 11.9354C74.8592 11.8071 75.528 11.873 76.1358 12.1247C76.7436 12.3764 77.2631 12.8026 77.6286 13.3495C77.9941 13.8963 78.1892 14.5392 78.1892 15.1969C78.1892 16.0789 77.8388 16.9247 77.215 17.5484C76.5912 18.172 75.7451 18.5224 74.8629 18.5224Z" fill="#F2F2F2"/>
<path d="M24.9406 17.496L27.6099 0.0615845H22.9352L20.7108 17.2018C19.2312 17.6012 17.941 18.5119 17.0693 19.7723C16.1977 21.0326 15.8009 22.5609 15.9496 24.0859C16.0982 25.6109 16.7826 27.0339 17.8813 28.1023C18.9799 29.1706 20.4217 29.8152 21.9507 29.9216C23.4796 30.0279 24.9968 29.5892 26.2329 28.6832C27.4689 27.7773 28.3439 26.4627 28.7023 24.973C29.0608 23.4832 28.8796 21.9147 28.1909 20.5459C27.5023 19.177 26.3507 18.0965 24.9406 17.496ZM22.3877 26.2406C21.838 26.2474 21.2988 26.0906 20.8385 25.7903C20.3781 25.4899 20.0175 25.0595 19.8025 24.5538C19.5874 24.0481 19.5276 23.4898 19.6307 22.95C19.7337 22.4103 19.995 21.9133 20.3813 21.5223C20.7675 21.1313 21.2613 20.864 21.8 20.7542C22.3386 20.6445 22.8977 20.6974 23.4062 20.9061C23.9147 21.1148 24.3496 21.4699 24.6558 21.9263C24.9619 22.3828 25.1254 22.9199 25.1254 23.4694C25.1237 24.1979 24.8358 24.8966 24.3237 25.415C23.8116 25.9333 23.1163 26.2298 22.3877 26.2406Z" fill="#F2F2F2"/>
<path d="M134.607 0.0615845H128.673L129.357 28.567L101.295 41.8823C100.343 40.6807 98.9958 39.8553 97.4926 39.5523C95.9893 39.2493 94.4273 39.4883 93.0836 40.2271C91.7399 40.9658 90.7014 42.1564 90.1522 43.5878C89.603 45.0191 89.5786 46.5987 90.0835 48.0463C90.5883 49.4939 91.5897 50.716 92.91 51.4957C94.2303 52.2755 95.7842 52.5626 97.296 52.306C98.8079 52.0494 100.18 51.2659 101.169 50.0942C102.158 48.9226 102.7 47.4386 102.699 45.9056C102.709 45.7164 102.709 45.5268 102.699 45.3377L133.58 33.7056L134.607 0.0615845ZM96.2376 48.6768C95.6961 48.6768 95.1668 48.5162 94.7166 48.2155C94.2664 47.9148 93.9155 47.4873 93.7082 46.9872C93.501 46.4871 93.4468 45.9368 93.5525 45.4059C93.6581 44.8749 93.9188 44.3873 94.3017 44.0045C94.6846 43.6217 95.1724 43.361 95.7035 43.2554C96.2345 43.1498 96.785 43.204 97.2852 43.4112C97.7855 43.6183 98.2131 43.9691 98.5139 44.4192C98.8147 44.8693 98.9753 45.3985 98.9753 45.9398C98.9664 46.6629 98.6751 47.3539 98.1636 47.8653C97.6521 48.3767 96.9609 48.6679 96.2376 48.6768Z" fill="#F2F2F2"/>
<path d="M26.3574 81.2671C25.9196 81.2682 25.4834 81.3187 25.057 81.4176L20.307 72.0161L0 72.8167V80.0012L16.5358 76.58L21.4226 83.9014C20.6887 84.9999 20.343 86.3121 20.4404 87.6295C20.5379 88.9469 21.0728 90.194 21.9604 91.1726C22.8479 92.1513 24.0371 92.8054 25.3391 93.031C26.6411 93.2566 27.9811 93.0409 29.1464 92.418C30.3116 91.795 31.2352 90.8007 31.7705 89.593C32.3058 88.3852 32.422 87.0332 32.1007 85.7519C31.7795 84.4705 31.0391 83.3332 29.9973 82.5206C28.9555 81.7081 27.6719 81.2669 26.3505 81.2671H26.3574ZM26.3574 89.7243C25.8562 89.7256 25.3659 89.5783 24.9486 89.3009C24.5312 89.0236 24.2056 88.6286 24.0129 88.1662C23.8202 87.7037 23.769 87.1944 23.866 86.7029C23.9629 86.2113 24.2035 85.7596 24.5574 85.4048C24.9113 85.0501 25.3625 84.8083 25.854 84.71C26.3454 84.6118 26.8549 84.6615 27.318 84.853C27.7812 85.0444 28.1771 85.3689 28.4557 85.7853C28.7342 86.2018 28.8829 86.6916 28.8829 87.1926C28.8829 87.8628 28.6171 88.5057 28.1436 88.9803C27.6702 89.4549 27.0278 89.7225 26.3574 89.7243Z" fill="#F2F2F2"/>
</svg>
